<?xml version="1.0" encoding="UTF-8"?>
<svg id="Camada_2" data-name="Camada 2" xmlns="http://www.w3.org/2000/svg" viewBox="0 0 111.4 149.32">
  <g id="Layer_1" data-name="Layer 1">
    <g>
      <path d="m.6,66.52c0,4,.03,7.99,0,11.99-.07,10.63-.76,21.36,2.81,31.6,9.97,28.59,35.49,44.25,66.82,36.9,23.07-5.41,40.31-28.48,40.61-53.4.15-12.82,0-25.64.04-38.46.02-5.55-1.15-11.01-2.91-16.05-6.85-19.57-20.46-31.72-40.75-37.21C48.99-3.04,24.56,5.55,12.84,21.4,3.03,34.65.02,49.53.6,66.52Z" fill="#365314" stroke="#365314" stroke-miterlimit="10"/>
      <path d="m36.89,60.19c5.84,1.75,9.36,6.95,15.02,8.27,4.04-15.68-2.75-27.42-18.23-31.26-1.45-.36-2.96-.48-4.37-.93-1.63-.53-4.17-.51-3.96-2.92.2-2.33,2.63-1.82,4.06-1.62,7.1,1.04,6.31-4.53,6.91-8.57,3.54-.48,4.93.69,5.39,3.9.81,5.62,5.19,11.18,10.28,13.55,1.72-4.69.13-9.55.93-14.14.87-4.99-2.12-8.65-4.73-13.81,5.3.92,9.44,1.93,12.95.05,1.47,1.25,1.57,2.43.93,3.16-5.45,6.19-2.9,13.67-3.37,20.62-.24,3.53,1.73,3.98,4.45,2.26,3.94-2.49,7.96-4.82,12.47-6.16.64-.19,1.26-.63,1.88-.63,2.97.02,7.57-1.94,8.33,1.44.72,3.18-4.05,2.73-6.59,3.32-8.73,2.05-15.66,6.36-19.39,14.87-2.31,5.27-1.08,10.61-.91,16.79,9.39-3.1,13.8-9.55,16.79-17.34,1.21-2.68.64-8.23,5.04-7.05,2.31.59,1.71,2.46,1.43,4.09-1.89,10.77-8.71,18.05-17.22,24.04-6.39,4.5-7.86,7.86-6.04,15.36.1.42.59.75.84,1.05,1.45.4,2.42-.38,3.25-1.15,7.14-6.57,15.86-9.41,25.23-10.55,1.77-.22,4.54-1.13,4.95,1.71.51,3.47-2.55,2.75-4.53,2.85-4.03.21-7.68,1.36-10.96,3.5.52,3.45,4.55,2.38,5.51,5.27-.79,1.69-1.38,3.02-4.26,2.12-10.81-3.38-14.61-1.89-18.29,6.47-4.3,9.77-2.36,16.16,6.46,21.59,2.75,1.69,7.13,2.48,4.59,7.72-5.38-.83-9.55-3.98-12.97-7.7-2.5-2.72-3.61-2.04-5.9,0-3.78,3.36-7.66,6.84-13.07,7.57-2.44-4.97,1.48-5.83,4.3-7.31,8.23-4.3,10.67-11.42,7.49-20.07-2.82-7.67-8.73-12.06-15.52-15.33-4.42-2.13-9.15-4.01-14.33-3.86-1.64.05-3.65.05-3.56-2.4.1-2.86,2.47-2.31,4.13-2.18,9.12.75,17.46,3.64,24.68,9.4,1.04.83,2.07,1.66,3.15,2.42.38.27.9.36,1.73.67,2.66-5.95-.57-10.67-3.74-14.53-7.38-8.97-17.21-13.83-28.98-14.29-3.21-.13-6.42-.04-4.54-5.17,7.54.49,15.04,1.08,22.26,4.93Z" fill="#fff"/>
      <path d="m92.31,60.41c-3.81-.57-6.86,1.28-10.17,1.38.59-5.17,1.62-5.62,14.72-6.56,1.75,4.19-.31,5.35-4.55,5.18Z" fill="#fff"/>
      <path d="m31.3,53.64c-1.64-2.12-1.3-4.44-1.99-6.47-.52-1.53.13-2.73,1.61-3.13,1.66-.46,3,.31,3.49,1.99.83,2.84,1.51,5.73,2.24,8.56-2.11,1.53-3.6.4-5.34-.95Z" fill="#fff"/>
      <path d="m70.27,97.97c3.63-2.43,5.58-.09,7.34,2.34.81,1.11.32,2.61-1.01,2.68-3.22.16-5.61-1.27-6.33-5.03Z" fill="#fff"/>
      <path d="m35.99,102.93c-2.76-1.02-2.37-2.66-.95-4.1,1.37-1.39,3.13-2.83,5.2-1.76,1.89.98,1.68,2.74.13,3.93-1.14.87-2.64,1.25-4.38,1.93Z" fill="#fff"/>
      <path d="m70.01,27.03c.79-2.12.88-4.56,3.71-4.11,1.72.27,1.73,1.7,1.75,3.05.03,2.18-1.25,3.28-3.19,3.75-1.92.47-2.18-.86-2.27-2.69Z" fill="#fff"/>
      <path d="m16.36,115.76c-.1-1.98.79-3.17,2.32-2.65,2.41.82,4.17,2.52,4.65,5.36-3.35,1.56-5.33.27-6.97-2.71Z" fill="#fff"/>
      <path d="m20.95,50.54c-2.58-1.48-4.25-3.16-4.21-6.26,3.1-1.34,5.01.43,6.25,2.81.73,1.39,1.48,3.68-2.04,3.45Z" fill="#fff"/>
      <path d="m89.49,119.11c-2.32-4.61,2.44-4.49,3.84-6.85,2.95,4.15,2.07,5.73-3.84,6.85Z" fill="#fff"/>
      <path d="m93.18,70.12c.14-4.09,2.89-4.7,7.8-1.81-1.92,2.99-4.41,3.38-7.8,1.81Z" fill="#fff"/>
      <path d="m66.58,25.74c-.11,2.07-.81,3.25-2.82,3.52-3.12-2.87-1.56-5.32.49-7.82,2.68.44,2.22,2.32,2.32,4.29Z" fill="#fff"/>
      <path d="m45.51,22.61c4.41.85,4.95,2.96,2.06,6.89-3.38-1.27-2.78-3.95-2.06-6.89Z" fill="#fff"/>
      <path d="m24.05,114.35c-1.06-1.49-2.43-2.35-2.59-4,1.08-2.15,2.96-1.79,4.71-1.33,1.44.37,1.47,1.76,1.21,2.86-.37,1.5-.55,3.51-3.32,2.47Z" fill="#fff"/>
      <path d="m16.07,86.4c2.24-.84,4.12-1.06,6.14.19-1,3.71-3.86,4.27-6.74,3.36-2.37-.75-.61-2.23.6-3.55Z" fill="#fff"/>
      <path d="m65.18,54.64c-.05-3.46.88-5.83,4.49-6.03,1.31,4.84-.11,6.89-4.49,6.03Z" fill="#fff"/>
      <path d="m78.51,69.46c2.05-.26,3.04.54,2.52,2.17-.59,1.86-2.27,2.67-4.13,3.1-1.13.26-1.96-.01-2.44-1.03-.73-1.57.39-2.48,1.44-3.25.63-.46,1.49-.61,2.6-.99Z" fill="#fff"/>
      <path d="m45.35,55.78c-3.45-1.26-5.22-3.26-3.78-7.49,3.92,1.24,5.8,3.2,3.78,7.49Z" fill="#fff"/>
      <path d="m88.71,46.67c1.52-1.55,2.62-3.33,4.81-2.47.84.33,1.01,1.32.78,2.16-.78,2.74-2.82,3.92-5.5,4.27-1.21-1.16-.84-2.4-.09-3.96Z" fill="#fff"/>
      <path d="m85.65,114.1c-1.11-1.95-2.64-3.83.17-5.07,1.35-.6,3.45-.73,3.74.96.4,2.34-.91,4.16-3.91,4.11Z" fill="#fff"/>
      <path d="m16.64,66.9c1.23.77,2.97,1.22,1.97,2.61-1.12,1.54-2.93,2.15-4.87,1.2-1-.48-2.42-.59-2.39-2.15.05-1.98,1.64-1.74,2.91-1.85.66-.06,1.33.05,2.38.18Z" fill="#fff"/>
      <path d="m92.34,85.68c2.64.04,4.17.98,4.78,3.72-2.85,1.59-5.36,1.14-7.12-1.48-1.22-1.83.56-2.09,2.33-2.24Z" fill="#fff"/>
      <path d="m34.26,69.82c1.69,1.16,4.02,2.09,2.38,4.17-1.35,1.71-3.32.48-4.77-.5-1.03-.7-2.2-1.69-1.42-3.23.85-1.67,2.24-.69,3.8-.43Z" fill="#fff"/>
      <path d="m53.57,131.83c2.47-2.49,3.79-.66,4.65,1.02.69,1.34-.14,2.58-1.81,2.63-2.24.07-3.96-.5-2.84-3.65Z" fill="#fff"/>
      <path d="m56.8,137.6c3.77.76,1.74,2.34.68,3.29-2.72,2.41-3.51-.45-4.97-1.7.96-2.12,2.61-1.45,4.3-1.59Z" fill="#fff"/>
    </g>
  </g>
</svg>