<?xml version="1.0" encoding="utf-8"?>
<!-- Generator: Adobe Illustrator 18.0.0, SVG Export Plug-In . SVG Version: 6.00 Build 0)  -->
<!DOCTYPE svg PUBLIC "-//W3C//DTD SVG 1.1//EN" "http://www.w3.org/Graphics/SVG/1.1/DTD/svg11.dtd">
<svg version="1.1" id="Layer_1" xmlns="http://www.w3.org/2000/svg" xmlns:xlink="http://www.w3.org/1999/xlink" x="0px" y="0px"
	 viewBox="0 0 432 432" enable-background="new 0 0 432 432" xml:space="preserve" fill="rgb(54 83 20)">
<g>
	<path d="M49.3,238.3c1.1-1.1,1.9-2.1,2.6-3c4.6-5.7,8.1-12,11.3-18.5c5.8-11.1,10.3-22.6,15-34.2c1.1-2.8,1.7-5.9,2.6-8.7
		c0.4-1.6,1-3.1,1.5-4.7c0.4-1.3,1.2-1.9,2.5-2c1.6-0.2,3,0.1,4.5,0.7c0.9,0.6,1.4,1.2,1.2,2.3c-0.3,2.1-0.7,4-1,6.1
		c-1.4,9.4-2.9,18.9-4.1,28.4c-1,7-1.4,14.1-1.3,21.1c0,2.6,0.3,5.2,1.2,7.7c0.4,1,0.9,1.9,1.5,2.8c0.5,0.8,1.3,0.9,2.1,0.5
		c1-0.6,2-1.2,3-1.9c2.9-2.1,5.1-4.7,7-7.5c3.6-5.2,6.5-10.7,8.9-16.5c0.3-0.5,0.6-1,0.2-1.7c-2.5-5.7-3-11.7-2.8-17.8
		c0.6-13.4,3.6-26.3,8.8-38.5c1.3-3.2,2.9-6.4,5.2-9c2.7-3.2,6.1-4,10.1-3c2,0.6,3.3,1.9,3.8,3.9c0.5,2.2,0.3,4.4,0,6.5
		c-1.7,11.8-5.1,23.1-9.2,34.3l-8.1,23c-0.3,0.6-0.6,1.3-0.5,2.2c0.8,6,8.4,0.1,9.9-1.1c1.7-1.3,2.1-1.8,3.7-0.6
		c-0.1,0.2-0.2,0.7-0.5,1c-1.7,1.5-3.5,3.3-5.4,4.7c-2.4,1.9-5.3,1.7-8.1,0.9c-0.3-0.2-0.6-0.3-0.9-0.3c-0.1-0.1-0.4-0.3-0.7-0.3
		c-0.3,0.4-0.6,0.9-0.7,1.3c-2.4,4.7-4.7,9.1-7.2,13.6c-2.2,3.9-5.6,7.1-9.8,9.3c-3.1,1.9-6.6,2.4-10.2,1.8
		c-4.8-0.8-8.2-3.6-10.1-8.2c-1.6-4-2.1-8.2-2.2-12.4c-0.1-2.9,0.1-5.8,0.2-8.6c0-0.4,0-0.6-0.3-1.1l-0.6,1.3c-1.1,2.4-2,4.8-3,7.2
		c-2.7,6.9-6.4,13.2-10.7,19.1c-1.7,2.4-3.8,4.3-6.9,4.8c-2.8,0.6-5.4,0.3-8-1.1c-1.6-0.9-2.5-2-3.4-3.6c-2.1-3.9-3.4-8.2-3.9-12.6
		c-0.9-5.9-0.6-11.9,0.1-17.8c2.3-15.7,5.9-31.1,10.7-46.3c1.7-5.1,3.7-10.2,5.6-15.4c0.4-1.1,1-2.1,1.4-3.1
		c0.7-1.4,1.7-1.9,3.2-1.9c1.7,0,3.2,0.4,4.6,1.3c1,0.7,1.5,1.5,1.2,2.7c-0.5,3.1-1.1,6.1-1.8,9.1c-2.2,8.8-4.5,17.5-6.8,26.3
		c-2.2,8.8-4.3,17.5-5.6,26.3c-1,7.3-1.7,14.8-1.7,22.1C47.7,232.4,48.3,235.3,49.3,238.3L49.3,238.3z M126.8,146.8
		c-7.1,7.3-16.3,43.4-13.8,52.3c0.3-0.6,0.6-1,0.8-1.6c3.2-9.1,6.6-18.1,9.7-27.3c1.8-5.5,3.1-11.2,3.3-17
		C127,151.2,126.8,149,126.8,146.8L126.8,146.8z" />
	<path d="M138.9,208.8c-1.9,4.8-3.3,10-2.8,15.3c0.1,1,0.4,2,1,3c3,6.4,19.1-7.4,27.5-18.8c1.5-1.9,2.9-0.9,2.1,1
		c-5.3,7.4-11.2,15.6-19.9,20.1c-6.6,4.3-15.3,2.1-19-4.9c-2.2-4.2-2.7-8.7-1.5-13.2c1.6-6.9,5.1-12.6,10.4-17.3
		c2.1-1.9,4.3-3.7,6.8-5.3c3.2-2.2,6.9-2.8,10.7-2.1c2.6,0.4,4.9,1.5,6.4,3.7c1.2,1.4,1.4,3,0.8,4.6c-0.4,1.6-1.1,3-2.3,4.1
		c-4.7,5.3-10.5,8.5-17.6,9.5C140.7,208.4,139.9,208.5,138.9,208.8L138.9,208.8z M140.1,205.7c4.5-1.1,8.4-2.4,11.7-5
		c1.6-1.3,2.9-2.8,4.1-4.3c1-1.3,1.3-2.7,1.1-4.5c-0.2-1.7-1.2-2.3-2.8-1.7c-1.4,0.6-2.9,1.4-4.2,2.4c-3.4,2.8-6.1,6.2-8.4,10.2
		L140.1,205.7z"/>
	<path d="M178.2,210.5c-0.5,3.2-1.2,6.6-1.6,9.8c-0.6,2.7-0.7,5.5-1.1,8.2c-0.4,3.8-0.3,7.5,0.2,11.2l0,0.2c0.6,3,1.6,3.4,4.1,2
		c3-1.9,5.5-4.3,7.6-7c3.3-4.5,6-9.2,8.5-13.9c2-3.9,3.8-8,5.8-12.1c0.6-1.3,1.3-1.6,2.5-1.5c0.9,0.2,1.1,0.6,1,1.3
		c-0.1,0.3-0.1,0.6-0.3,0.8c-3.7,8.8-7.8,17.6-13.1,25.6c-2.5,3.5-5.2,6.4-8.5,8.9c-3.2,2.2-6.8,2.7-10.5,2c-3.6-0.9-6-3-7.3-6.6
		c-1.1-2.9-1.5-5.8-1.7-8.8c-0.5-7.6,1.1-14.7,2.6-22c2.8-12.9,7.4-25.3,13.3-37.1c4-8.4,8.9-16.4,15.4-23.6
		c2.2-2.4,4.9-4.4,7.8-5.9c4.3-2,8.2-1.2,12,1.3c2.5,1.4,3.1,4,3.3,6.6c0.3,4.2-0.4,8.3-1.5,12.2c-3.4,12.2-9,23.3-17,32.9
		c-2.9,3.5-6.3,6.6-9.7,9.7c-3,2.7-6.6,4.5-10.6,5.4C179.1,210.3,178.8,210.4,178.2,210.5L178.2,210.5z M179.4,206.2l0.4,0.4
		c1-0.4,2.2-1,3.3-1.7c4.4-2.8,8.2-6.3,11.6-10.3c7.7-8.9,13-18.9,16.5-30.1c1.4-3.9,2-8,1.9-11.9c0-2.6-0.7-4.8-2.1-7.1
		c-0.7,0.6-1.7,1.1-2.1,1.7c-1.9,2.1-3.8,4.3-5.5,6.5c-4.2,5.8-7.5,12.4-10.8,18.8c-4.4,8.5-8.1,17.3-11.1,26.6
		C180.6,201.5,180.1,203.9,179.4,206.2L179.4,206.2z"/>
	<path d="M224.7,195c-1.6,0.3-2.9,1.3-3.9,2.5c-2.6,2.7-4.4,5.8-6,9.1c-2.7,5.9-4.6,12-5.5,18.2c-0.6,2.9-1.3,6-1.3,8.9
		c0,1.1,0.2,2.2,1.1,3.1c0.6,0.8,1.4,1.1,2.3,0.6c1.4-0.7,3-1.5,4.4-2.6c1.5-1.2,2.8-2.4,3.8-4c2.9-3.5,5.8-7.3,8.5-11.1
		c2.2-3.6,4.1-7.4,6.2-11c1-1.7,1.5-1.8,3.4-0.8c-0.6,1.5-1.2,2.9-1.9,4.4c-2.8,6.1-6.3,11.9-10,17.6c-2.1,3.2-4.7,5.8-7.7,8.3
		c-3.8,3.2-8,3.4-12.5,1.5c-4.8-2.2-7.3-6.2-8.2-11.4c-0.7-3.4-0.2-6.7,0.5-9.9c2-8.2,5.4-15.5,11.1-21.7c2.7-2.9,5.7-5.6,9.8-6.4
		c4.1-0.8,7.8,0,11.1,2.8c1.9,1.4,2.5,3.4,1.8,5.8c-0.4,1.6-1.3,2.3-3,1.9c-1.9-0.5-2.4-1-2.8-2.8C226.1,197,225.8,195.8,224.7,195
		L224.7,195z"/>
	<path d="M271.3,218.1c0.7-0.4,1.7-0.7,2.6-1.3c3.1-2.1,5.6-4.7,7.9-7.6c1.1-1.5,2.1-1.5,3.7-0.9c0,0.1,0.2,0.4,0,0.6
		c-2.7,4.3-5.9,8.3-10.9,10.5c-1.2,0.6-2.5,1.1-3.8,1.3c-1.3,0.3-1.8,1-2.4,1.9c-1.5,2.3-2.9,4.6-4.8,6.6c-3.7,4.4-8.5,6.6-14.1,6.3
		c-4.1-0.2-7.4-1.6-10.2-4.7c-3.7-3.9-5-8.6-5.2-13.7c-0.2-6.5,1.4-12.9,4.6-18.6c0.3-0.5,0.3-1.3,0.3-2c0-5.4,1.6-10.5,5.1-14.7
		c3.5-4,7.8-6.8,13-7.4c7.7-1.1,13.8,1.6,18.1,8c2.2,3.6,3.1,7.8,2.7,12c-0.5,7.7-3.1,14.8-6.1,21.8c-0.3,0.5-0.5,1.2-0.8,1.6
		L271.3,218.1z M246.3,213.7c-0.1,0.3-0.3,0.4-0.4,0.5c-0.6,3.1-0.8,6.2-0.5,9.3c0,2.6,1,5.1,2.6,7c1.7,2,3.1,2.4,5.4,1.4
		c4.8-1.8,7.4-6,10.2-10.5C256.9,220.7,251.1,218,246.3,213.7L246.3,213.7z M246.3,194l1.9,0.4c0.5,0.1,1.1,0.3,1.6,0.5
		c1.3,0.7,1.5,1.3,1,2.6c-0.3,0.9-0.7,1.8-1,2.7l-2,5.8c-0.2,0.7-0.1,1.4,0.4,2.2c3.8,6.2,9.3,9.8,16.7,10.7l0.8-1.2
		c2.3-4.9,4.2-10,5.2-15.4c0.7-3.9,1.1-7.5,0.4-11.3c-0.9-4.9-2.8-9.1-7.2-11.8c-2-1.3-3.8-1.5-6.1-0.4
		C251.7,181.9,248.1,187.1,246.3,194L246.3,194z"/>
	<path d="M340.1,248.1c0.7-0.9,1.1-1.5,1.6-2.1c1.1-2.6,2.5-5.1,3.5-7.8c2.7-6.8,5.2-13.7,7.6-20.7c1.2-3,1.9-6.1,3-9.1
		c0.5-1.7,1.4-1.9,3.2-1.1c-0.3,1-0.7,2.2-1.2,3.3c-3.1,10.2-6.3,20.3-9.7,30.4c-0.7,2.3-1.8,4.7-3,6.7c-2.2,3.7-7.1,4.1-9.7,3.1
		c-1.9-0.8-3.2-2.1-3.5-4.1c-0.4-2.1-0.6-4.3-0.7-6.4c-0.1-9.3,1.2-18.3,3.2-27.4c1.2-6,2.2-11.9,3.3-17.9l0-0.9
		c-0.7,0.4-1,1.1-1.3,1.7c-1.4,3-3,6.1-4.3,9.1l-6.5,16.9c-0.8,1.8-1.6,3.7-2.5,5.5c-0.5,0.8-1.1,1.5-1.8,2.4
		c-2.4,3.3-8.5,2.9-10.7-1.3c-0.7-1.7-1-3.3-1.3-5.2c-0.8-4.1-0.2-8.2,0.3-12.2c0.7-5.1,1.7-10.3,2.5-15.4c0.1-0.5,0.1-1-0.1-1.7
		l-0.9,1.2c-2.7,4.2-4.6,8.8-6.3,13.4c-2.3,6.2-4.7,12.5-7.1,18.6c-0.6,1.6-1.3,3.1-2.3,4.5c-2.3,3.5-6.2,4.1-9.7,1.8
		c-1.4-1-2.3-2.3-3.1-3.9c-1.6-3.1-1.9-6.5-1.8-10c0.2-7.9,1.8-15.8,4.3-23.3c0.6-1.5,1.2-2.8,1.7-4.3c0.4-0.8,1.2-1.3,2.1-1.3
		c1.7-0.2,3.3,0.1,4.7,1c0.9,0.5,1.3,1.3,1.2,2.3c-0.4,3.2-0.8,6.4-1.5,9.6c-0.8,4.8-1.7,9.4-1.9,14.1l-0.5,9.7
		c0,0.6,0.1,0.9,0.3,1.4c0.4-0.6,0.8-1.3,1-1.9c3.1-7.4,6.3-14.7,9.3-22.2c1.8-4.7,4.1-8.9,6.5-13c0.9-1.5,2.2-2.8,3.3-4.1
		c0.4-0.5,1.2-0.9,1.9-1c3.1-0.9,6.4,0.8,7.8,3.7c1,2.2,1.1,4.4,1.1,6.7c-0.3,5.9-1.1,11.9-2.1,17.7l-1.2,7.7c0,0.6,0,1,0.2,1.6
		l0.5-1c1.1-2.9,2.1-5.8,3.1-8.6c2.4-7,5.5-13.7,9.2-19.9c1.3-2.2,2.9-4.3,4.5-6.2c2.3-2.7,6.9-3.1,9.6-0.6c0.6,0.7,1.1,1.6,1.3,2.5
		c0.3,1.7,0.7,3.3,0.6,5.2c-0.5,5.5-1.5,10.9-2.5,16.2c-1.7,9.4-3.8,18.8-4.7,28.3c0,1.2-0.3,2.2-0.6,3.4
		C339.8,244.7,339.5,246.1,340.1,248.1L340.1,248.1z"/>
	<path d="M393.6,208.2c-8.4,11.4-24.5,25.2-27.5,18.8c-0.5-0.9-0.9-1.9-1-3c-0.5-5.3,0.9-10.5,2.8-15.3c1-0.3,1.8-0.3,2.7-0.4
		c7-1.1,12.9-4.3,17.6-9.5c1.2-1.1,1.9-2.5,2.3-4.1c0.6-1.6,0.3-3.2-0.8-4.6c-1.5-2.2-3.8-3.3-6.4-3.7c-3.9-0.7-7.5,0-10.7,2.1
		c-2.5,1.6-4.7,3.4-6.8,5.3c-5.3,4.7-8.8,10.4-10.4,17.3c-1.2,4.5-0.7,9,1.5,13.2c1.2,2.3,2.9,4,5,5.2c0,0,6.8,3.1,10.4,1.4
		c0.5-0.2,0.9-0.3,1.3-0.5c0.8-0.3,1.6-0.7,2.3-1.2c8.6-4.5,14.6-12.7,19.9-20.1C396.5,207.3,395.1,206.3,393.6,208.2z M370.7,202.9
		c2.3-4,5-7.4,8.4-10.2c1.3-1,2.8-1.8,4.2-2.4c1.6-0.6,2.6,0,2.8,1.7c0.2,1.8-0.1,3.2-1.1,4.5c-1.2,1.5-2.5,3-4.1,4.3
		c-3.3,2.5-7.2,3.8-11.7,5L370.7,202.9z"/>
	<path d="M90.6,271c2.3,2.4,5,3.8,7.9,4.8c4.7,1.5,9.3,2.1,14,2.3c5.3,0.2,10.5,0.1,15.8-0.6c5-0.7,10-2.1,15-3.3
		c11.4-3,22.6-6.6,33.6-10.4c1.1-0.3,1.9-0.1,2.8,0.2c9.7,3.4,19.4,6.9,29.1,10.1c10.9,3.7,21.8,7.2,32.9,10.1
		c10.4,2.8,20.9,4.9,31.6,6.1c8.4,1.1,16.9,1.3,25.4,0.8c4.7-0.4,9.3-1.2,13.9-3c4.4-2,8.2-4.8,11.1-8.7c4.3-5.8,5.1-12,2.6-18.7
		c-3.1-8.5-12.3-13.6-19.1-13.5c-2.8,0-5.3,0.7-7.6,2c-2.6,1.7-5,3.9-6.8,6.5c-0.4,0.5-1.2,1.2-0.5,1.8c0.9,0.8,1.5-0.1,2-0.7
		c1.2-0.9,2.2-2.1,3.5-3.1c2.5-2,5.5-2.7,8.9-2.1c8.6,1.7,14.7,7.2,16.5,16.3c0.5,2.6,0.3,5.5-1,8c-0.5,1.2-1.4,2.4-2.3,3.3
		c-3,3-6.6,4.5-10.8,5.3c-6,1.4-12.1,1.8-18.3,1.6c-4.6-0.1-9.2-0.3-13.8-0.6c-7.1-0.7-14.2-1.9-21.3-3.4
		c-13.6-2.9-26.9-7.3-39.9-12l-25.7-9.1c-0.7-0.3-1.3-0.6-2.3-0.9c0.4-0.2,0.5-0.4,0.7-0.5c11.2-4.7,22.4-9,33.9-12.1
		c7.5-2,15.1-1.9,22.4,0.7c6.8,2.2,12,6.7,14.9,13.4c0.6,1.2,0.7,2.4,1.1,3.5c0.2,0.4,0.3,0.8,0.3,1.1c2-0.5,3.4-2,3.6-4.1
		c0.3-2.6-0.4-4.7-1.4-7c-1.8-3.7-4.7-6.4-8.1-8.8c-4-2.7-8.5-4.1-13.3-5c-2.4-0.4-4.9-0.7-7.3-0.6c0,0-8.2,0.8-10.7,1.4l-3.2,0.8
		c-9.9,2.8-19.5,6.3-29,9.9c-3.8,1.4-7.5,2.7-11.2,4c-0.9,0.4-1.7,0.1-2.5-0.1c-8.9-3.2-17.8-6-26.8-8.5c-7.1-1.9-14.4-3.6-21.9-4.3
		c-5.6-0.6-11.1-0.5-16.7,0c-3.3,0.3-6.5,0.8-9.6,1.8c-2.6,0.9-5.3,2.1-7.7,3.6c-3.6,2.6-6,6-7.5,10.1l0,0
		C86.1,263.7,87.1,267.7,90.6,271z M91.9,261.7c-0.9-2.3-0.3-4.4,1.6-6.1c1.3-1,2.6-1.7,3.9-2.6c3.9-2.1,8.2-3,12.3-3.3
		c8.4-0.5,16.6-0.3,24.7,1.2c8.3,1.6,16.2,3.7,24,6.2c3.5,1,6.9,2.1,10.7,3.3l-1.4,0.6c-2.8,1-5.5,2-8.5,2.8
		c-10.2,3.4-20.5,6.4-31.3,7.8c-7.7,0.9-15.6,0.8-23.3-0.8c-3.4-0.7-6.7-1.9-9.4-4C93.7,265.3,92.4,263.7,91.9,261.7L91.9,261.7z"/>
</g>
</svg>
