<?xml version="1.0" encoding="utf-8"?>
<svg viewBox="4.059 6.234 55.0165 50.7467" xmlns="http://www.w3.org/2000/svg">
  <g transform="matrix(1, 0, 0, 1, 0, -8.881784197001252e-16)">
    <path fill-rule="evenodd" clip-rule="evenodd" d="M47.26,17.514c-1.958,0.032-4.815,1.012-7.2,1.68    c-1.103,0.309-3.098-0.023-3.12,1.68c1.383,1.557,3.837,0.676,5.04,0.48c0.001,0.241-0.194,0.286-0.24,0.48    c1.101-0.131,1.119,0.049,1.681-0.72c0.104,0.85,2.2-0.102,2.399-0.72c1.4,0.556,6.592-1.375,7.92-2.16    c0.263-1.302-0.571-1.509-0.72-2.4C50.261,15.808,48.536,16.647,47.26,17.514z"/>
    <path fill-rule="evenodd" clip-rule="evenodd" d="M37.42,30.234c-0.104,0.457-0.518,0.603-0.48,1.2    c1.708,1.504,3.556,0.829,5.04,0.72c0.021-0.001,1.258,0.533,1.44-0.48c0.203,0.866,1.977,0.132,2.399-0.72    c2.111,0.561,6.037-1.247,7.92-2.16c0.216-1.335-0.524-1.715-0.96-2.4C47.164,27.422,43.364,29.261,37.42,30.234z"/>
    <path fill-rule="evenodd" clip-rule="evenodd" d="M43.18,36.474c3.572-1.144,8.058-0.562,10.08-3.359    c-0.188-0.054-0.279-0.201-0.24-0.48c-6.647-0.832-10.322,0.709-16.56,3.12c-0.173,1.402,0.446,1.479,0.479,2.16    C39.214,38.876,41.169,37.117,43.18,36.474z"/>
    <path fill-rule="evenodd" clip-rule="evenodd" d="M53.739,38.634c-1.518-1.837-3.409-0.279-5.52,0.48    c-3.235,1.163-9.289,1.18-11.28,3.6c0.125,0.355,0.355,0.604,0.48,0.96c2.744,0.215,3.832-0.482,4.56,0.24    c3.465-1.407,7.723-1.38,11.76-3.84C53.935,39.244,53.291,39.061,53.739,38.634z"/>
    <path fill-rule="evenodd" clip-rule="evenodd" d="M53.02,43.914c-2.484-0.609-4.064,0.321-5.28-0.24    c-2.283,0.551-8.183,1.888-11.279,3.36c-0.074,0.874,0.038,1.562,0.239,2.16c2.304,1.241,4.19-0.532,6.24-1.2    c3.502-1.142,8.358-0.977,10.32-3.36C52.979,44.594,52.999,44.255,53.02,43.914z"/>
    <path fill-rule="evenodd" clip-rule="evenodd" d="M58.779,7.194c-3.009,0.033-6.403,0.661-9.6,1.2    c-4.042,0.682-8.167,1.885-11.28,3.12c-0.949-0.467-1.211-0.333-2.399-0.72c-1.234,0.126-1.312,1.408-2.641,1.44    c-0.028-0.246,1.035-0.485,0.24-0.72c-0.91,1.064-1.482-0.229-2.64,0.72c-0.976-1.572-3.888-1.401-6.48-1.92    c-3.044-0.609-5.277-1.961-8.88-1.44c0.128-0.495,1.135-0.057,0.48-0.72c-2.454-0.397-5.751-1.245-8.64-1.92    c-0.56,0-1.12,0-1.68,0c-0.334,0.546-0.831,0.93-1.2,1.44c0,3.28,0,6.56,0,9.84c0.625,10.899,0.194,21.865,0.24,32.88    c2.373,2.191,6.437,2.37,10.08,3.12c3.564,0.734,7.341,1.503,10.8,2.16c3.029,0.576,5.42,1.648,8.64,1.2    c4.292-0.598,8.603-2.128,12.721-3.12c4.29-1.034,8.557-1.559,12.479-3.12C59.061,38.362,59.202,21.232,58.779,7.194z     M29.979,20.154c0.275,12.655,0.573,23.575,0.24,33.6c-8.378-1.629-16.107-3.059-23.04-4.56c0.006-10.283-0.308-26.645-0.24-39.84    c3.994,0.646,7.116,2.164,11.04,2.88c0.227,1.016,0.359,0.568,0.48,0.24c2.295,0.475,3.595,0.475,4.8,1.92    c0.851-0.326,0.474-0.389,1.44-0.48c-0.707,0.751,1.375,0.698,1.92,0.24c0.962,1.579,2.35,0.871,3.36,1.68    c0.352,1.955-0.524,2.982,0.96,4.08C30.731,20.612,30.58,20.184,29.979,20.154z M42.699,52.313c-0.66-0.139-1.002-0.597-1.68-0.72    c-0.864,0.369-0.497,0.727-1.44,1.2c0.457-0.985-1.65-0.488-1.92,0.479c-1.562-1.147-2.385,0.535-3.84,0    c0.644-1.376-0.449-2.658-0.479-3.84c0.453,0.18,0.166,0.717,0.72,0.24c-0.465-13.376-0.363-24.66-0.48-34.32    c7.775-1.792,15.03-3.929,23.04-6c0.561,11.851,0.285,26.793,0.48,39.84C51.991,50.453,46.967,50.376,42.699,52.313z"/>
    <path fill-rule="evenodd" clip-rule="evenodd" d="M14.379,19.914c0.045-0.355,0.58-0.22,0.96-0.24    c-0.002,0.317-0.42,0.219-0.48,0.48c3.339,0.573,7.492,2.013,12.48,1.92c0.52-1.301,0.51-1.773-0.24-2.88    c-5.439-0.444-11.395-2.786-16.08-2.4c0,0.32,0,0.64,0,0.96C11.816,19.021,14.631,18.928,14.379,19.914z"/>
    <path fill-rule="evenodd" clip-rule="evenodd" d="M37.42,27.594c5.379-1.421,11.128-2.472,15.84-4.56    c0.054-0.454-0.271-0.529-0.24-0.96c-2.838-1.038-4.513,0.701-5.52-0.72c-2.713,1.62-8.208,1.901-11.04,3.84    C36.472,26.833,36.693,26.892,37.42,27.594z"/>
    <path fill-rule="evenodd" clip-rule="evenodd" d="M14.379,25.194c0.779-0.647,0.814,0.235,1.44,0.72    c2.365-0.526,9.389,3.182,12,0.72c-0.08-1.12-0.636-1.764-1.2-2.4c-5.505,0.134-9.727-2.415-15.6-2.16    C10.855,24.836,14.046,23.778,14.379,25.194z"/>
    <path fill-rule="evenodd" clip-rule="evenodd" d="M27.1,31.914c0.165-2.762-3.026-1.705-3.36-3.12    c-0.407,0.285-1.209,0.445-0.96-0.72c-3.085,0.498-8.839-2.753-12.24-0.96c-0.47,1.02,0.369,1.975,0.96,2.64    C16.999,29.724,21.572,32.199,27.1,31.914z"/>
    <path fill-rule="evenodd" clip-rule="evenodd" d="M21.339,34.554c-1.309-0.372-3.457-1.309-5.28-1.68    c-1.603-0.326-4.292-1.014-5.04,0.479c0.81,2.099,4.395,1.598,3.84,2.881c0.857,0.003,1.794,0.222,2.4,0.479    c0.543,0.23,1.068-0.154,1.92,0c2.834,0.512,6.879,2.586,8.4,0.96C29.707,35.399,23.327,33.641,21.339,34.554z"/>
    <path fill-rule="evenodd" clip-rule="evenodd" d="M23.74,40.313c-0.35-0.176-1.39,0.173-0.48-0.479    c-3.401-0.546-7.029-1.82-12.24-1.92c-0.24,0.319-0.396,0.725-0.72,0.96c0.414,0.819,0.293,0.93,0.72,1.92    c4.315,0.752,9.92,1.768,15.6,2.88c0.318-0.401,0.636-0.804,0.48-1.68C25.83,41.501,24.023,40.456,23.74,40.313z"/>
    <path fill-rule="evenodd" clip-rule="evenodd" d="M16.78,46.794c1.323,0.491,3.701,1.267,5.76,1.68    c1.482,0.298,4.047,1.087,4.56-0.479c-4.104-3.72-8.72-3.896-16.08-4.8C8.291,46.18,14.354,47.51,16.78,46.794z"/>
  </g>
</svg>